<svg width="31" height="13" viewBox="0 0 31 13" fill="none" xmlns="http://www.w3.org/2000/svg">
  <path
    d="M0.426136 2.79403V1.27273H7.59375V2.79403H4.92188V10H3.09801V2.79403H0.426136ZM8.74006 10V3.45455H10.5554V10H8.74006ZM9.65199 2.6108C9.3821 2.6108 9.15057 2.52131 8.95739 2.34233C8.76705 2.16051 8.67188 1.94318 8.67188 1.69034C8.67188 1.44034 8.76705 1.22585 8.95739 1.04688C9.15057 0.865057 9.3821 0.774147 9.65199 0.774147C9.92188 0.774147 10.152 0.865057 10.3423 1.04688C10.5355 1.22585 10.6321 1.44034 10.6321 1.69034C10.6321 1.94318 10.5355 2.16051 10.3423 2.34233C10.152 2.52131 9.92188 2.6108 9.65199 2.6108ZM12.0096 12.4545V3.45455H13.7994V4.55398H13.8803C13.9599 4.37784 14.0749 4.19886 14.2255 4.01705C14.3789 3.83239 14.5778 3.67898 14.8221 3.55682C15.0692 3.43182 15.3761 3.36932 15.7425 3.36932C16.2198 3.36932 16.6602 3.49432 17.0636 3.74432C17.467 3.99148 17.7894 4.36506 18.0309 4.86506C18.2724 5.36222 18.3931 5.9858 18.3931 6.7358C18.3931 7.46591 18.2752 8.08239 18.0394 8.58523C17.8065 9.08523 17.4883 9.46449 17.0849 9.72301C16.6843 9.97869 16.2354 10.1065 15.7383 10.1065C15.386 10.1065 15.0863 10.0483 14.8391 9.93182C14.5948 9.81534 14.3945 9.66903 14.2383 9.4929C14.082 9.31392 13.9627 9.13352 13.8803 8.9517H13.8249V12.4545H12.0096ZM13.7866 6.72727C13.7866 7.11648 13.8406 7.45597 13.9485 7.74574C14.0565 8.03551 14.2127 8.26136 14.4173 8.4233C14.6218 8.58239 14.8704 8.66193 15.163 8.66193C15.4585 8.66193 15.7085 8.58097 15.913 8.41903C16.1175 8.25426 16.2724 8.02699 16.3775 7.73722C16.4854 7.4446 16.5394 7.10795 16.5394 6.72727C16.5394 6.34943 16.4869 6.01705 16.3817 5.73011C16.2766 5.44318 16.1218 5.21875 15.9173 5.05682C15.7127 4.89489 15.4613 4.81392 15.163 4.81392C14.8675 4.81392 14.6175 4.89205 14.413 5.0483C14.2113 5.20455 14.0565 5.42614 13.9485 5.71307C13.8406 6 13.7866 6.33807 13.7866 6.72727Z"
    fill="white" />
  <path
    d="M23.1232 3.45455V4.81818H19.0835V3.45455H23.1232ZM20.0082 10V2.98153C20.0082 2.5071 20.1005 2.11364 20.2852 1.80114C20.4727 1.48864 20.7283 1.25426 21.0522 1.09801C21.3761 0.941761 21.744 0.863636 22.1559 0.863636C22.4343 0.863636 22.6886 0.884943 22.9187 0.927557C23.1516 0.97017 23.3249 1.00852 23.4386 1.04261L23.1147 2.40625C23.0437 2.38352 22.9556 2.36222 22.8505 2.34233C22.7482 2.32244 22.6431 2.3125 22.5352 2.3125C22.2681 2.3125 22.082 2.375 21.9769 2.5C21.8718 2.62216 21.8192 2.79403 21.8192 3.01562V10H20.0082ZM25.353 12.4545C25.1229 12.4545 24.907 12.4361 24.7053 12.3991C24.5064 12.3651 24.3416 12.321 24.2109 12.267L24.62 10.9119C24.8331 10.9773 25.0249 11.0128 25.1953 11.0185C25.3686 11.0241 25.5178 10.9844 25.6428 10.8991C25.7706 10.8139 25.8743 10.669 25.9538 10.4645L26.0604 10.1875L23.7124 3.45455H25.6214L26.9766 8.26136H27.0447L28.4126 3.45455H30.3345L27.7905 10.7074C27.6683 11.0597 27.5021 11.3665 27.2919 11.6278C27.0845 11.892 26.8217 12.0952 26.5036 12.2372C26.1854 12.3821 25.8018 12.4545 25.353 12.4545Z"
    fill="#22C55E" />
</svg>